<svg xmlns="http://www.w3.org/2000/svg" xmlns:xlink="http://www.w3.org/1999/xlink" xmlns:a="http://ns.adobe.com/AdobeSVGViewerExtensions/3.0/" version="1.1" x="0px" y="0px" width="68.9px" height="59.9px" viewBox="0 0 68.9 59.9" enable-background="new 0 0 68.9 59.9" xml:space="preserve"><path fill="#FFFFFF" d="M63.7 0H5.3C2.4 0 0 2.4 0 5.3v49.3c0 2.9 2.4 5.3 5.3 5.3h58.3c2.9 0 5.3-2.4 5.3-5.3V5.3C69 2.4 66.6 0 63.7 0zM5.3 4h58.3c0.7 0 1.3 0.6 1.3 1.3V48H4V5.3C4 4.6 4.6 4 5.3 4zM13 52v4h-2v-4H13zM17 52h2v4h-2V52zM23 52h2v4h-2V52zM29 52h2v4h-2V52zM35 52h2v4h-2V52zM41 52h2v4h-2V52zM4 54.7V52h3v4H5.3C4.6 56 4 55.4 4 54.7zM63.7 56H47v-4h18v2.7C65 55.4 64.4 56 63.7 56zM26 38.7c0.3 0.2 0.7 0.3 1 0.3 0.4 0 0.7-0.1 1-0.3l17-10c0.6-0.4 1-1 1-1.7s-0.4-1.4-1-1.7l-17-10c-0.6-0.4-1.4-0.4-2 0s-1 1-1 1.7v20C25 37.7 25.4 38.4 26 38.7zM29 20.5L40.1 27 29 33.5V20.5z"/></svg>